<?xml version="1.0" encoding="UTF-8"?>
<svg version="1.1" xmlns="http://www.w3.org/2000/svg" width="64" height="64">
<path d="M0 0 C11.55 0 23.1 0 35 0 C35.495 2.475 35.495 2.475 36 5 C40.95 5.99 40.95 5.99 46 7 C46 8.98 46 10.96 46 13 C48.97 13.99 51.94 14.98 55 16 C54.36985915 22.0059358 53.21238719 27.68583465 51.71484375 33.53125 C51.3840255 34.84603333 51.3840255 34.84603333 51.04652405 36.18737793 C50.34796584 38.95939845 49.64284691 41.72970001 48.9375 44.5 C48.45985022 46.39051483 47.98263237 48.28113886 47.50585938 50.171875 C46.34222959 54.7825274 45.17271693 59.39165092 44 64 C38.95087492 63.51207825 34.07584353 62.92918876 29.16015625 61.625 C28.16048828 61.36203125 27.16082031 61.0990625 26.13085938 60.828125 C25.11830078 60.55484375 24.10574219 60.2815625 23.0625 60 C22.02287109 59.72671875 20.98324219 59.4534375 19.91210938 59.171875 C12.30521845 57.15260922 12.30521845 57.15260922 10 56 C10 55.34 10 54.68 10 54 C8.35 53.67 6.7 53.34 5 53 C5 52.34 5 51.68 5 51 C3.35 50.67 1.7 50.34 0 50 C0 33.5 0 17 0 0 Z M5 4 C5 17.53 5 31.06 5 45 C11.6 45 18.2 45 25 45 C24.67 43.02 24.34 41.04 24 39 C25.875 37.9375 25.875 37.9375 28 37 C28.66 37.33 29.32 37.66 30 38 C30 26.78 30 15.56 30 4 C21.75 4 13.5 4 5 4 Z M35 6 C36 10 36 10 36 10 Z M36 10 C34.57174014 11.1999099 34.57174014 11.1999099 34.88647461 14.69360352 C34.88663376 16.33871292 34.89233012 17.98382731 34.90234375 19.62890625 C34.90446617 20.92525246 34.90446617 20.92525246 34.90663147 22.24778748 C34.91224761 25.01939292 34.92480281 27.7909188 34.9375 30.5625 C34.94251292 32.4368478 34.94707619 34.31119685 34.95117188 36.18554688 C34.96222228 40.79039544 34.9794977 45.39518421 35 50 C32.03 50 29.06 50 26 50 C26 50.33 26 50.66 26 51 C29.3 51.33 32.6 51.66 36 52 C37.65 38.47 39.3 24.94 41 11 C39.35 10.67 37.7 10.34 36 10 Z M45 14 C46 16 46 16 46 16 Z M44 18 C43.42469313 22.42840931 42.85523983 26.85752181 42.29101562 31.28735352 C42.09858234 32.79178786 41.90459777 34.29602467 41.70898438 35.80004883 C41.42682651 37.97165672 41.15039965 40.14393219 40.875 42.31640625 C40.70742188 43.62037354 40.53984375 44.92434082 40.3671875 46.26782227 C40.01241792 49.8737814 39.93443317 53.3794816 40 57 C41.99437109 53.46190364 42.9338053 49.85487837 43.9453125 45.93359375 C44.2074202 44.92063988 44.2074202 44.92063988 44.474823 43.88722229 C44.84169787 42.46484989 45.20632925 41.04189716 45.56884766 39.6184082 C46.12437913 37.43993469 46.68861378 35.26384917 47.25390625 33.08789062 C47.60989581 31.7032588 47.96538188 30.3184974 48.3203125 28.93359375 C48.80395264 27.0472522 48.80395264 27.0472522 49.29736328 25.12280273 C50.10975701 22.04567435 50.10975701 22.04567435 50 19 C47.03 18.505 47.03 18.505 44 18 Z M29 39 C30 41 30 41 30 41 Z M29 42 C28.01 42.99 27.02 43.98 26 45 C27.32 45 28.64 45 30 45 C29.67 44.01 29.34 43.02 29 42 Z M14 54 C14 54.33 14 54.66 14 55 C16.31 55 18.62 55 21 55 C21 54.67 21 54.34 21 54 C18.69 54 16.38 54 14 54 Z M22 55 C22 55.33 22 55.66 22 56 C24.31 56 26.62 56 29 56 C29 55.67 29 55.34 29 55 C26.69 55 24.38 55 22 55 Z M30 56 C32.96687001 57.64826111 35.65626525 58.44271087 39 59 C39.33 58.34 39.66 57.68 40 57 C36.52674819 55.8422494 33.63932552 55.93133348 30 56 Z " fill="#B7B7B7" transform="translate(4,0)"/>
<path d="M0 0 C11.22 0 22.44 0 34 0 C34.6356407 6.99204766 35.12094169 13.45352353 34.87890625 20.38671875 C34.84348976 21.62854668 34.84348976 21.62854668 34.80735779 22.89546204 C34.73188651 25.49303567 34.64737532 28.09021846 34.5625 30.6875 C34.50916201 32.46808098 34.45642285 34.24868 34.40429688 36.02929688 C34.27753811 40.35317904 34.13850814 44.67641512 34 49 C22.78 49 11.56 49 0 49 C0 32.83 0 16.66 0 0 Z M4 4 C4 17.53 4 31.06 4 45 C10.6 45 17.2 45 24 45 C23.67 43.02 23.34 41.04 23 39 C24.875 37.9375 24.875 37.9375 27 37 C27.66 37.33 28.32 37.66 29 38 C29 26.78 29 15.56 29 4 C20.75 4 12.5 4 4 4 Z M28 39 C29 41 29 41 29 41 Z M28 42 C27.01 42.99 26.02 43.98 25 45 C26.32 45 27.64 45 29 45 C28.67 44.01 28.34 43.02 28 42 Z " fill="#F2F2F2" transform="translate(5,0)"/>
<path d="M0 0 C4.95 0.99 4.95 0.99 10 2 C10.87624604 6.38123019 11.12140364 7.63902177 10.10375977 11.60668945 C9.77330406 12.9274926 9.77330406 12.9274926 9.43617249 14.27497864 C9.19039963 15.2116185 8.94462677 16.14825836 8.69140625 17.11328125 C8.32304909 18.56760811 8.32304909 18.56760811 7.94725037 20.05131531 C7.16225403 23.14100773 6.36259669 26.22668729 5.5625 29.3125 C5.02702341 31.40925737 4.49250678 33.50626016 3.95898438 35.60351562 C2.65044004 40.73857454 1.32984538 45.87041877 0 51 C-5.04912508 50.51207825 -9.92415647 49.92918876 -14.83984375 48.625 C-15.83951172 48.36203125 -16.83917969 48.0990625 -17.86914062 47.828125 C-18.88169922 47.55484375 -19.89425781 47.2815625 -20.9375 47 C-21.97712891 46.72671875 -23.01675781 46.4534375 -24.08789062 46.171875 C-31.69478155 44.15260922 -31.69478155 44.15260922 -34 43 C-34 42.34 -34 41.68 -34 41 C-31.03 40.505 -31.03 40.505 -28 40 C-28 40.33 -28 40.66 -28 41 C-25.36 41 -22.72 41 -20 41 C-20 41.33 -20 41.66 -20 42 C-18.3603125 41.938125 -18.3603125 41.938125 -16.6875 41.875 C-13 42 -13 42 -10 44 C-8.34450469 44.38499891 -6.6777567 44.72793135 -5 45 C-2.16567854 36.92620732 0.01359309 28.70616255 2.1875 20.4375 C2.55898177 19.03313352 2.93072458 17.62883607 3.30273438 16.22460938 C4.20483183 12.81719622 5.10340013 9.40886443 6 6 C5.195625 6.020625 4.39125 6.04125 3.5625 6.0625 C1 6 1 6 0 5 C0 3.35 0 1.7 0 0 Z M1 1 C2 3 2 3 2 3 Z " fill="#D4D4D4" transform="translate(48,13)"/>
<path d="M0 0 C0.33 0 0.66 0 1 0 C1 13.53 1 27.06 1 41 C7.27 40.67 13.54 40.34 20 40 C19.505 37.525 19.505 37.525 19 35 C20.65 34.01 22.3 33.02 24 32 C24.495 32.495 24.495 32.495 25 33 C25.33 22.11 25.66 11.22 26 0 C26.33 0 26.66 0 27 0 C27 13.86 27 27.72 27 42 C18.09 42 9.18 42 0 42 C0 28.14 0 14.28 0 0 Z M25 35 C26 37 26 37 26 37 Z M25 38 C24.01 38.99 23.02 39.98 22 41 C23.32 41 24.64 41 26 41 C25.67 40.01 25.34 39.02 25 38 Z " fill="#747474" transform="translate(8,4)"/>
<path d="M0 0 C2.25 0.0625 2.25 0.0625 5 1 C6.81289982 3.13944699 8.04525277 5.36581789 9 8 C8.75 10.4375 8.75 10.4375 8 12 C6.68 12.33 5.36 12.66 4 13 C4 13.66 4 14.32 4 15 C1.75 15.375 1.75 15.375 -1 15 C-3.64560747 12.00628629 -5.05549413 10.2486179 -4.875 6.1875 C-4 4 -4 4 -2 3 C-1.34 2.01 -0.68 1.02 0 0 Z " fill="#CFCFCF" transform="translate(20,17)"/>
<path d="M0 0 C2.125 0.375 2.125 0.375 4 1 C4.33 2.98 4.66 4.96 5 7 C3.02 7.33 1.04 7.66 -1 8 C-1.625 5.125 -1.625 5.125 -2 2 C-1.34 1.34 -0.68 0.68 0 0 Z " fill="#A2A2A2" transform="translate(12,5)"/>
<path d="M0 0 C0.66 0.66 1.32 1.32 2 2 C1.625 4.625 1.625 4.625 1 7 C-0.32 6.67 -1.64 6.34 -3 6 C-3 4.68 -3 3.36 -3 2 C-2.01 1.34 -1.02 0.68 0 0 Z " fill="#D5D5D5" transform="translate(31,36)"/>
<path d="" fill="#000000" transform="translate(0,0)"/>
<path d="" fill="#000000" transform="translate(0,0)"/>
<path d="" fill="#000000" transform="translate(0,0)"/>
<path d="" fill="#000000" transform="translate(0,0)"/>
<path d="" fill="#000000" transform="translate(0,0)"/>
<path d="" fill="#000000" transform="translate(0,0)"/>
<path d="" fill="#000000" transform="translate(0,0)"/>
<path d="" fill="#000000" transform="translate(0,0)"/>
<path d="" fill="#000000" transform="translate(0,0)"/>
<path d="" fill="#000000" transform="translate(0,0)"/>
<path d="" fill="#000000" transform="translate(0,0)"/>
<path d="" fill="#000000" transform="translate(0,0)"/>
<path d="" fill="#000000" transform="translate(0,0)"/>
</svg>
